<?xml version="1.0" standalone="no"?>
<!DOCTYPE svg PUBLIC "-//W3C//DTD SVG 20010904//EN"
 "http://www.w3.org/TR/2001/REC-SVG-20010904/DTD/svg10.dtd">
<svg version="1.0" xmlns="http://www.w3.org/2000/svg"
 width="900.000000pt" height="900.000000pt" viewBox="0 0 900.000000 900.000000"
 preserveAspectRatio="xMidYMid meet">
<metadata>
Created by potrace 1.10, written by Peter Selinger 2001-2011
</metadata>
<g transform="translate(0.000000,900.000000) scale(0.100000,-0.100000)"
fill="#000000" stroke="none">
<path d="M4320 8983 c0 -23 74 -90 126 -115 24 -11 46 -29 49 -40 4 -10 3
-166 -1 -344 -6 -279 -9 -328 -23 -346 -16 -19 -26 -20 -286 -18 -332 3 -1930
11 -2150 12 -416 1 -657 -3 -683 -13 -37 -14 -67 -44 -114 -112 l-40 -58 4
-297 c8 -765 -4 -1832 -23 -1981 -9 -68 -9 -85 2 -92 18 -12 146 -11 153 0 3
5 1 141 -4 302 -14 390 -14 1887 0 1957 9 51 33 95 62 119 7 6 55 18 106 27
82 14 216 16 1055 16 2273 -1 4936 3 4983 7 76 7 130 -11 151 -50 17 -30 18
-207 19 -3082 2 -2022 6 -3063 12 -3089 11 -39 29 -59 44 -49 5 2 15 0 22 -6
10 -8 17 -7 27 5 12 14 14 293 15 1763 1 960 6 2311 10 3001 4 690 8 1296 8
1346 0 91 -6 117 -53 212 -34 70 114 64 -1601 65 -1459 0 -1552 2 -1560 18 -5
9 -12 131 -15 271 -3 139 -8 281 -11 315 -3 34 -3 71 1 82 3 10 35 34 71 52
67 35 150 112 139 129 -4 6 -57 10 -121 10 -97 0 -114 -2 -114 -16 0 -9 -6
-14 -12 -11 -7 2 -12 10 -10 16 1 8 -34 11 -118 11 -106 0 -120 -2 -120 -17z"/>
<path d="M5111 8954 c-11 -38 -11 -52 0 -86 12 -38 25 -52 141 -150 21 -17 28
-34 31 -68 4 -41 6 -45 28 -42 29 4 31 6 54 62 10 25 35 63 56 85 47 51 56 70
64 131 6 39 4 53 -9 63 -13 11 -19 9 -40 -16 -14 -15 -28 -43 -32 -61 -8 -41
-42 -65 -93 -64 -85 1 -121 62 -86 145 8 19 11 37 8 41 -4 3 -29 6 -57 6 l-52
0 -13 -46z"/>
<path d="M616 8900 c-42 -11 -139 -61 -171 -88 -29 -24 -79 -91 -100 -132 -61
-119 -60 -297 2 -430 28 -61 117 -153 194 -200 l74 -45 146 0 c146 0 146 0
189 30 73 50 170 156 202 220 42 86 63 203 47 269 -19 85 -68 165 -150 248
-107 107 -155 130 -289 134 -58 2 -122 -1 -144 -6z m215 -209 c96 -46 179
-161 179 -250 0 -79 -95 -196 -188 -231 -62 -24 -114 -25 -171 -5 -106 37
-151 107 -151 234 0 71 3 86 30 131 55 93 143 154 215 147 22 -2 61 -14 86
-26z"/>
<path d="M8305 8894 c-60 -15 -180 -79 -216 -114 -29 -28 -76 -95 -83 -116 -3
-11 -17 -31 -29 -42 -22 -20 -39 -23 -253 -32 -126 -5 -249 -12 -274 -15 -25
-2 -152 -5 -282 -6 -191 -1 -238 -4 -242 -15 -10 -26 6 -43 42 -46 24 -2 37
-8 37 -17 0 -8 12 -18 26 -21 14 -4 221 -8 459 -9 239 -1 440 -6 449 -11 9 -5
20 -36 27 -78 24 -144 112 -272 225 -329 135 -68 194 -76 301 -43 153 47 288
189 318 335 47 229 -62 466 -248 538 -47 17 -215 32 -257 21z m162 -199 c135
-40 213 -208 155 -336 -71 -160 -263 -215 -396 -113 -61 46 -111 147 -101 201
8 44 55 139 84 170 82 86 155 109 258 78z"/>
<path d="M2485 8791 c-86 -40 -147 -140 -149 -243 -1 -57 -1 -58 59 -119 166
-169 263 -158 433 46 17 20 28 26 46 21 13 -3 106 -6 207 -7 l183 -1 75 -75
c90 -89 145 -118 205 -109 38 7 136 60 136 75 0 3 15 23 33 44 l33 37 143 0
c103 0 161 -5 207 -17 35 -9 66 -15 68 -12 13 13 -5 353 -19 367 -12 12 -25
-15 -25 -49 0 -26 -5 -42 -15 -45 -8 -4 -15 -14 -15 -23 0 -21 -33 -52 -75
-74 -40 -20 -223 -38 -248 -25 -11 5 -30 35 -44 66 -52 119 -109 161 -216 162
-100 0 -171 -47 -231 -152 -15 -25 -35 -49 -44 -53 -22 -9 -284 -22 -340 -17
-45 4 -45 4 -126 118 -30 42 -58 68 -88 83 -56 27 -138 28 -193 2z m132 -112
c15 -5 40 -22 56 -37 22 -21 27 -34 27 -75 0 -42 -5 -54 -34 -83 -28 -28 -42
-34 -76 -34 -46 0 -103 29 -120 60 -30 57 1 138 64 166 38 16 47 17 83 3z
m946 -19 c58 -51 67 -150 17 -195 -46 -42 -146 -21 -176 37 -37 72 26 186 103
188 12 0 38 -13 56 -30z"/>
<path d="M1636 8773 c-22 -23 -49 -107 -53 -170 -5 -61 -2 -76 16 -107 45 -72
173 -121 252 -97 109 32 165 63 153 82 -3 5 -14 9 -24 9 -10 0 -31 11 -47 23
-25 21 -36 23 -94 19 -64 -4 -66 -3 -92 28 -31 36 -34 69 -12 130 18 52 18 50
2 50 -8 0 -22 9 -32 20 -18 20 -55 27 -69 13z"/>
<path d="M6440 8594 c-41 -7 -109 -13 -150 -14 -41 -1 -102 -6 -135 -11 -71
-12 -132 -13 -161 -4 -15 5 -23 2 -27 -9 -5 -11 -1 -16 13 -16 30 0 24 -27 -9
-44 -22 -12 -37 -13 -62 -6 -47 14 -89 12 -95 -3 -3 -9 -31 -13 -97 -13 -116
-1 -257 -13 -276 -24 -12 -7 -10 -10 12 -16 41 -10 506 2 609 16 91 12 495 8
555 -5 28 -6 31 -5 26 13 -3 11 -16 31 -29 43 -14 13 -34 43 -44 66 -21 48
-17 47 -130 27z m-352 -66 c-3 -7 -11 -13 -18 -13 -7 0 -15 6 -17 13 -3 7 4
12 17 12 13 0 20 -5 18 -12z"/>
<path d="M4950 8566 l-114 -11 -23 -34 c-28 -42 -26 -54 13 -62 73 -16 323 -4
343 17 5 5 11 29 13 54 l3 45 -60 1 c-33 1 -112 -3 -175 -10z"/>
<path d="M5910 8530 c0 -5 9 -10 20 -10 11 0 20 5 20 10 0 6 -9 10 -20 10 -11
0 -20 -4 -20 -10z"/>
<path d="M5222 8456 c1 -10 8 -17 13 -17 15 1 12 24 -3 29 -9 3 -13 -2 -10
-12z"/>
<path d="M783 6743 c2 -884 6 -1124 17 -1185 l14 -77 30 3 c24 2 35 11 48 37
16 31 17 119 17 1149 1 1014 -3 1190 -23 1130 -2 -8 -7 -41 -11 -72 -6 -53 -9
-58 -31 -58 -28 0 -33 15 -36 109 -2 41 -8 66 -16 69 -9 3 -11 -221 -9 -1105z
m77 882 c0 -8 -9 -15 -20 -15 -20 0 -26 11 -13 23 12 13 33 7 33 -8z"/>
<path d="M8107 7784 c-9 -31 -17 -2723 -9 -2964 6 -206 9 -225 25 -228 12 -3
20 4 24 17 3 12 13 21 24 21 10 0 20 4 23 9 18 29 38 1701 25 2126 -3 127 -2
379 4 560 10 335 5 470 -16 462 -7 -2 -11 -15 -9 -29 2 -13 -6 -35 -16 -48
-16 -20 -22 -22 -35 -12 -8 7 -15 29 -15 48 0 41 -17 66 -25 38z"/>
<path d="M4537 7754 c-5 -5 -594 -10 -1310 -11 -716 -1 -1377 -6 -1470 -10
l-167 -8 -7 -980 c-3 -539 -7 -1025 -7 -1080 l-1 -100 55 -3 c93 -5 87 -37 79
448 -10 572 -12 1550 -4 1558 9 10 232 19 499 21 126 1 233 4 237 7 12 7 4351
3 4622 -4 217 -6 240 -9 252 -26 11 -15 58 -46 70 -46 2 0 11 7 19 16 12 11
16 36 16 97 0 45 -5 89 -10 97 -8 12 -105 15 -712 16 -387 2 -1029 6 -1428 9
-404 4 -729 4 -733 -1z"/>
<path d="M7360 7446 l-24 -14 -6 -1294 c-6 -1435 -7 -3723 -2 -3948 2 -80 1
-180 -3 -222 -4 -48 -3 -78 3 -78 6 0 13 11 16 25 5 18 13 25 31 25 14 0 25
-4 25 -10 0 -5 8 -10 19 -10 16 0 19 12 26 108 9 125 7 5376 -2 5400 -13 34
-42 40 -83 18z"/>
<path d="M2223 7342 l-242 -2 -6 -33 c-3 -17 -4 -421 -3 -897 l3 -865 65 3
c36 2 68 6 72 10 4 5 8 363 9 797 1 610 4 795 14 810 12 20 23 20 2388 20
2195 0 2378 -1 2393 -17 15 -15 17 -179 22 -2080 6 -2340 5 -2460 -6 -2617
-13 -170 37 -155 -502 -147 -1326 21 -3879 15 -4200 -10 -125 -9 -111 -143
-108 1101 1 594 3 1177 3 1295 l0 215 -65 -3 c-41 -1 -69 -7 -75 -16 -13 -17
-19 -2705 -7 -2724 7 -11 113 -11 578 -4 313 5 1422 8 2464 6 1042 -2 1929 0
1970 4 l75 7 7 95 c5 78 9 1176 5 1745 0 77 2 725 6 1440 4 715 4 1352 -1
1415 -7 113 -8 115 -35 128 l-27 13 20 26 c15 20 20 40 20 87 -1 61 -22 191
-33 202 -3 4 -118 1 -254 -5 -173 -8 -847 -10 -2228 -6 -1089 2 -2002 6 -2030
7 -27 2 -159 2 -292 0z"/>
<path d="M8553 7135 c-18 -8 -55 -36 -81 -62 -38 -38 -53 -63 -71 -119 -38
-120 -10 -218 87 -301 50 -43 53 -48 48 -82 -3 -20 -8 -379 -12 -798 l-6 -763
60 0 c49 0 62 3 66 18 2 9 7 267 10 572 7 599 14 945 22 973 3 10 36 33 72 51
118 60 164 124 166 236 1 77 -22 134 -80 199 -39 43 -67 64 -101 75 -57 20
-137 20 -180 1z m140 -129 c39 -16 63 -49 72 -99 22 -116 -113 -216 -190 -139
-52 51 -59 113 -22 183 35 65 77 82 140 55z"/>
<path d="M270 7064 c-102 -58 -133 -112 -134 -229 0 -68 4 -87 25 -123 24 -40
108 -120 150 -142 10 -6 25 -34 34 -65 13 -42 21 -54 38 -57 18 -2 22 -10 23
-38 1 -58 4 -71 14 -65 6 3 10 25 10 48 0 23 8 67 18 97 14 45 31 68 88 122
87 84 114 134 114 214 -1 94 -48 179 -133 237 -36 24 -49 27 -121 27 -68 0
-88 -4 -126 -26z m181 -116 c16 -18 35 -50 41 -70 29 -98 -88 -192 -180 -144
-64 33 -60 120 9 207 41 52 86 54 130 7z"/>
<path d="M2695 6870 c-16 -4 -80 -8 -142 -9 -61 0 -114 -4 -116 -8 -2 -5 0
-474 5 -1043 5 -569 10 -1507 11 -2085 l2 -1050 250 4 c138 2 255 7 260 11 7
6 7 80 1 222 -7 164 -6 307 8 628 13 311 16 519 11 830 -7 519 -23 1008 -39
1210 -21 258 -2 310 77 212 22 -26 68 -77 104 -114 36 -37 77 -83 92 -102 14
-19 100 -112 190 -208 296 -311 448 -477 511 -556 20 -26 77 -90 125 -142 85
-92 223 -250 295 -340 64 -81 221 -230 240 -230 4 0 38 41 75 91 37 50 93 119
125 152 32 34 76 85 97 112 22 28 100 107 174 175 139 129 220 211 336 342
244 275 650 693 700 721 27 16 51 -20 57 -86 3 -34 8 -633 11 -1332 3 -698 7
-1286 9 -1305 3 -19 5 -95 5 -168 l1 -132 208 2 207 3 1 159 c1 87 7 218 14
290 13 143 7 2250 -8 2546 -4 85 -4 211 -1 280 3 69 12 267 18 440 7 173 19
346 26 384 20 101 24 99 -124 90 -69 -4 -137 -11 -150 -16 -36 -13 -267 -250
-341 -348 -35 -47 -158 -182 -275 -300 -197 -201 -289 -299 -325 -346 -8 -11
-28 -37 -44 -59 -17 -22 -33 -42 -36 -45 -3 -3 -44 -54 -90 -115 -167 -218
-144 -193 -496 -536 -162 -158 -181 -173 -219 -163 -50 12 -569 544 -673 688
-12 17 -55 65 -95 106 -41 41 -121 127 -178 190 -57 63 -179 192 -270 285
-221 226 -393 419 -477 535 -108 150 -99 142 -147 130z"/>
<path d="M367 6383 c-11 -10 -8 -53 3 -53 6 0 10 14 10 30 0 31 -2 35 -13 23z"/>
<path d="M212 6173 c-31 -12 -51 -93 -36 -148 3 -11 28 -35 56 -53 49 -31 72
-36 51 -10 -6 7 -16 54 -22 103 -12 89 -24 117 -49 108z"/>
<path d="M372 5988 c-7 -7 -12 -20 -12 -29 0 -10 -4 -21 -10 -24 -5 -3 -10
-16 -11 -28 -3 -83 3 -687 7 -708 l5 -25 387 -3 c213 -1 614 -3 892 -4 l505
-2 3 71 c2 56 -1 75 -15 93 -17 21 -21 22 -88 11 -259 -41 -676 -53 -1047 -29
-124 8 -173 8 -181 0 -7 -7 -65 -11 -159 -11 -183 0 -174 -9 -183 180 -4 74
-13 167 -21 205 -8 39 -14 80 -14 91 0 12 -9 33 -21 47 -15 20 -18 35 -14 60
5 24 2 38 -9 49 -14 14 -14 18 -1 28 16 13 20 40 7 40 -4 0 -13 -5 -20 -12z"/>
<path d="M3294 5039 c-3 -6 -8 -412 -9 -903 -3 -897 8 -1439 29 -1465 9 -11
35 -12 135 -7 69 4 129 10 134 13 6 4 8 209 3 557 -7 593 2 939 27 998 17 40
51 68 84 68 16 0 32 -15 59 -56 19 -32 61 -87 92 -123 176 -206 520 -422 608
-382 23 10 26 16 20 44 -12 60 -71 134 -153 189 -191 131 -317 258 -517 517
-59 77 -125 154 -274 316 -45 49 -103 120 -127 156 -25 36 -57 71 -71 77 -31
15 -31 15 -40 1z"/>
<path d="M5834 5037 c-6 -7 -40 -38 -75 -69 -36 -32 -103 -105 -149 -164 -47
-58 -112 -138 -145 -178 -33 -39 -80 -98 -105 -131 -52 -71 -127 -147 -270
-276 -58 -52 -123 -112 -145 -131 -38 -35 -68 -58 -142 -110 -80 -56 -10 -72
152 -36 58 13 85 26 175 87 128 87 172 128 271 252 63 80 81 89 117 62 58 -43
57 -26 60 -891 l3 -793 142 3 142 3 0 320 c-1 176 -3 658 -5 1070 -2 413 -1
805 4 873 7 100 6 122 -5 122 -8 -1 -19 -6 -25 -13z"/>
<path d="M8682 4908 c9 -7 18 -22 20 -32 4 -25 36 -45 46 -30 4 6 18 17 30 23
13 7 21 15 18 19 -11 10 -80 32 -105 32 -22 0 -23 -2 -9 -12z"/>
<path d="M280 4900 c-69 -8 -119 -27 -160 -60 l-25 -20 30 -23 30 -22 706 -5
c389 -3 711 -9 716 -13 4 -5 9 -677 10 -1494 1 -817 4 -1487 7 -1490 3 -3 40
0 83 6 147 23 388 29 883 25 513 -5 718 0 746 20 22 16 9 65 -20 71 -77 18
-241 27 -592 32 -347 5 -409 3 -471 -11 -40 -9 -110 -16 -158 -16 -79 0 -262
-22 -298 -36 -31 -11 -57 31 -58 94 0 31 1 629 3 1327 4 1701 5 1605 -13 1616
-17 10 -1322 10 -1419 -1z"/>
<path d="M8547 4863 c-17 -20 -57 -116 -57 -138 0 -8 8 -23 18 -33 9 -9 22
-28 29 -42 11 -23 12 -21 12 25 0 76 8 109 30 124 23 15 28 50 9 69 -16 16
-22 15 -41 -5z"/>
<path d="M8826 4828 c14 -47 23 -66 33 -73 19 -11 12 -26 -11 -23 -16 2 -22
-1 -19 -12 12 -46 12 -74 -3 -111 -16 -39 -16 -41 6 -59 26 -21 45 -16 53 13
3 12 11 39 17 59 15 52 -5 174 -34 205 -29 30 -52 31 -42 1z"/>
<path d="M1181 4493 c-5 -11 -5 -71 2 -158 17 -209 15 -230 -28 -314 -20 -40
-35 -83 -34 -94 3 -40 -1 -49 -16 -43 -23 8 -21 -87 2 -114 10 -11 21 -20 26
-20 5 0 15 -7 23 -15 18 -18 34 -20 34 -4 0 6 -8 13 -19 16 -24 6 -46 46 -37
68 5 14 9 15 21 5 21 -17 23 -13 31 56 8 74 34 108 70 92 43 -20 44 -81 4
-164 -11 -23 -29 -49 -40 -59 -19 -17 -19 -18 1 -43 14 -19 18 -34 13 -52 -20
-76 -25 -236 -33 -1080 l-10 -925 22 -44 c15 -30 33 -48 54 -58 36 -15 239
-17 516 -6 153 6 165 8 164 25 -1 15 -11 18 -62 19 -121 2 -176 7 -188 17 -16
13 -77 21 -224 30 -67 4 -125 10 -128 14 -18 17 -24 297 -24 1013 0 464 -5
796 -11 835 -5 36 -10 95 -10 132 0 63 3 72 41 127 57 83 62 140 21 242 -27
68 -32 97 -47 283 -9 114 -19 214 -22 222 -8 22 -100 19 -112 -3z"/>
<path d="M520 4479 c-91 -3 -170 -7 -176 -8 -17 -2 33 -94 59 -107 12 -7 92
-17 177 -24 85 -6 164 -15 176 -20 19 -8 22 -21 33 -205 7 -108 13 -244 12
-303 -5 -393 -11 -1318 -9 -1372 5 -146 2 -457 -5 -480 -3 -14 -26 -38 -51
-55 -25 -16 -46 -33 -46 -37 0 -11 73 -8 160 6 l75 12 -2 94 c-2 52 -4 622 -5
1265 -3 1075 -4 1173 -20 1207 l-17 38 -98 -2 c-54 -2 -172 -6 -263 -9z"/>
<path d="M8206 4441 c-3 -5 -24 -7 -47 -4 -27 4 -44 2 -48 -6 -5 -7 -10 -101
-12 -209 -5 -264 1 -2312 8 -2335 4 -15 12 -17 51 -11 26 3 53 11 61 18 13 10
13 435 1 2300 0 5 -7 3 -16 -5 -20 -17 -34 2 -34 49 0 17 -4 32 -10 32 -5 0
-10 -4 -10 -10 0 -19 -16 -10 -17 10 -1 13 4 20 16 20 10 0 24 6 31 14 6 8 17
13 24 10 17 -6 26 26 26 89 0 43 -11 60 -24 38z"/>
<path d="M8624 4121 c-34 -9 -107 -56 -141 -93 -39 -42 -63 -111 -65 -186 0
-38 3 -76 8 -85 5 -9 52 -59 104 -112 l94 -96 85 42 c48 24 87 47 89 51 2 4
19 17 38 29 50 31 84 111 84 199 0 86 -19 130 -81 191 -65 63 -127 81 -215 60z
m126 -157 c75 -64 79 -134 12 -206 -45 -49 -143 -30 -178 34 -8 13 -13 44 -14
70 0 41 5 52 38 88 48 50 93 54 142 14z"/>
<path d="M275 4076 c-100 -39 -151 -110 -161 -222 -6 -63 -4 -78 18 -125 49
-108 127 -167 228 -176 73 -7 135 20 184 80 54 68 71 113 70 192 -1 149 -113
266 -251 264 -32 0 -71 -6 -88 -13z m142 -131 c33 -9 73 -83 73 -135 0 -37 -6
-48 -44 -86 -34 -35 -51 -44 -77 -44 -50 0 -103 47 -124 111 -16 49 -16 54 0
87 32 67 91 90 172 67z"/>
<path d="M8660 3323 c0 -18 -5 -35 -11 -38 -6 -4 -8 -22 -4 -45 5 -32 3 -38
-14 -43 -13 -3 -22 -17 -27 -41 -5 -30 -19 -48 -73 -91 -112 -91 -141 -170
-111 -310 11 -52 19 -65 71 -116 l60 -56 -3 -334 -3 -334 23 -38 c13 -20 33
-42 44 -48 44 -24 45 -16 53 288 11 466 9 444 34 464 11 9 40 20 62 24 80 14
159 126 159 225 0 89 -78 213 -160 255 -41 21 -50 30 -54 57 -21 149 -29 194
-37 203 -5 5 -9 -3 -9 -22z m53 -379 c38 -18 67 -68 67 -115 0 -30 -34 -93
-63 -117 -53 -44 -141 -9 -165 64 -11 36 -11 47 5 90 12 32 30 56 52 71 40 27
59 28 104 7z"/>
<path d="M299 3057 c-96 -47 -143 -107 -159 -203 -13 -80 8 -140 75 -212 79
-86 156 -103 258 -58 64 28 144 114 153 164 9 45 -2 143 -20 185 -51 123 -193
180 -307 124z m148 -111 c29 -24 53 -82 53 -126 0 -30 -49 -97 -82 -111 -72
-30 -158 35 -158 119 0 47 30 115 57 131 34 20 99 13 130 -13z"/>
<path d="M292 1912 c-17 -54 -15 -80 5 -84 57 -11 313 24 313 42 0 4 -9 15
-21 26 -16 15 -22 16 -29 5 -6 -11 -15 -11 -40 -2 -18 6 -47 11 -64 11 -17 1
-49 8 -71 16 -77 30 -80 30 -93 -14z"/>
<path d="M3635 1900 c-110 -4 -210 -8 -221 -9 -30 -2 -39 -48 -12 -62 15 -8
24 -7 38 6 14 13 18 13 23 2 13 -35 138 -42 707 -42 151 0 343 2 425 4 83 1
195 2 250 2 55 -1 114 2 130 7 l30 9 -40 8 c-22 5 -47 7 -55 6 -8 -2 -31 3
-51 9 -23 8 -45 9 -56 4 -10 -4 -36 -9 -58 -11 -191 -12 -176 -13 -214 17 -40
31 -62 35 -281 50 -149 10 -314 10 -615 0z"/>
<path d="M8285 1763 c-106 -43 -219 -142 -259 -228 -53 -114 -58 -137 -54
-251 3 -106 5 -111 41 -172 48 -79 162 -193 224 -225 64 -32 118 -39 203 -27
147 21 269 104 331 226 33 67 34 70 34 194 0 103 -4 133 -20 170 -71 163 -186
273 -328 314 -69 20 -120 20 -172 -1z m185 -229 c131 -45 204 -178 171 -312
-16 -63 -86 -136 -154 -158 -60 -20 -156 -15 -211 11 -75 36 -138 128 -139
205 -1 85 70 198 157 251 38 23 114 25 176 3z"/>
<path d="M2285 1628 c-72 -5 -136 -14 -144 -21 -8 -7 -28 -12 -45 -12 -45 0
-42 -29 4 -34 65 -7 724 -6 780 1 30 4 60 7 65 8 6 0 -28 15 -75 32 -82 30
-91 31 -270 33 -102 1 -243 -2 -315 -7z"/>
<path d="M6255 1631 c-88 -9 -107 -28 -64 -67 19 -17 38 -19 223 -18 203 1
309 13 334 38 12 11 8 17 -20 34 -30 19 -48 20 -223 20 -104 0 -217 -3 -250
-7z"/>
<path d="M4524 1603 c-70 -7 -77 -22 -76 -170 1 -71 6 -204 12 -298 5 -93 10
-223 10 -288 0 -133 -11 -166 -75 -227 -65 -62 -79 -100 -79 -225 l-1 -110 49
-70 c67 -97 85 -115 134 -136 59 -26 160 -25 210 0 70 36 124 109 147 198 33
125 5 264 -65 332 -39 37 -129 91 -153 91 -8 0 -21 8 -30 18 -15 16 -17 53
-17 318 0 164 5 355 10 424 9 124 4 153 -24 148 -6 -1 -30 -3 -52 -5z m149
-1083 c37 -30 61 -108 48 -158 -17 -62 -52 -104 -103 -126 -41 -17 -50 -17
-78 -6 -51 21 -90 83 -90 142 0 50 27 123 56 152 24 25 134 22 167 -4z"/>
<path d="M554 1582 c-64 -22 -146 -83 -172 -126 -39 -66 -55 -144 -55 -276 0
-146 11 -184 87 -286 81 -110 151 -144 295 -144 78 0 100 4 146 25 94 45 221
190 244 281 20 76 -50 70 902 83 743 9 861 13 894 27 21 9 49 14 62 11 16 -3
31 2 43 15 17 19 47 17 35 -2 -3 -5 10 -13 28 -19 19 -7 44 -21 55 -32 22 -19
22 -24 17 -207 -4 -103 -11 -207 -16 -230 -14 -62 -1 -76 65 -66 28 4 58 8 66
9 41 3 42 9 36 218 -7 233 -23 385 -43 407 -11 13 -55 15 -271 15 -363 0
-1791 -24 -1818 -31 -24 -6 -54 26 -54 58 0 36 -64 148 -111 195 -86 84 -110
93 -257 93 -94 -1 -140 -5 -178 -18z m268 -138 c78 -37 145 -181 132 -284 -7
-59 -38 -129 -77 -176 -69 -82 -199 -98 -290 -35 -53 36 -102 104 -118 164
-28 106 54 266 168 326 47 25 139 28 185 5z"/>
<path d="M4088 1582 c-25 -2 -51 -8 -56 -15 -7 -8 -13 -228 -16 -592 -3 -319
-7 -602 -8 -630 l-3 -50 60 -3 c32 -2 70 0 83 3 l24 6 -7 147 c-4 81 -8 366
-9 634 0 311 -5 490 -11 495 -5 4 -31 7 -57 5z"/>
<path d="M3574 1568 c-4 -6 -9 -243 -10 -525 -2 -446 -1 -515 12 -528 9 -8 21
-15 29 -15 7 0 22 -12 33 -27 11 -16 24 -24 29 -20 4 5 11 189 14 410 4 220
10 468 14 550 6 121 5 151 -6 158 -21 13 -107 11 -115 -3z"/>
<path d="M4918 1570 c-14 -8 -18 -24 -18 -66 0 -30 5 -64 11 -75 6 -11 11 -33
11 -50 1 -38 18 -38 18 1 0 23 5 31 24 36 31 7 71 50 90 96 9 20 21 38 28 41
24 8 3 15 -72 21 -46 4 -82 2 -92 -4z"/>
<path d="M5148 1573 c-24 -6 -23 -23 2 -23 11 0 20 7 20 15 0 8 -1 14 -2 14
-2 -1 -11 -3 -20 -6z"/>
<path d="M5171 1530 c-19 -8 -21 -13 -11 -25 13 -16 51 -19 113 -9 63 11 48
22 -50 39 -16 2 -39 0 -52 -5z"/>
<path d="M6390 1258 c-203 -6 -676 -8 -985 -4 l-70 1 1 -175 c1 -175 14 -288
35 -301 7 -4 30 -6 53 -5 l41 1 5 163 c4 130 8 165 20 173 9 6 143 9 340 8
179 0 386 4 460 11 89 7 367 10 815 9 631 -3 683 -2 722 15 42 18 65 58 44 79
-5 5 -49 13 -98 18 -111 12 -1057 16 -1383 7z m1087 -79 c-14 -8 -22 -8 -30 0
-8 8 -3 11 19 11 25 -1 27 -2 11 -11z"/>
<path d="M6334 886 c-60 -13 -128 -64 -122 -92 2 -11 10 -17 19 -15 8 3 28 5
44 6 17 0 40 6 52 13 53 29 133 -5 160 -69 18 -42 16 -63 -7 -108 -65 -128
-197 -98 -224 52 -4 21 -13 37 -21 37 -7 0 -20 2 -27 5 -9 4 -17 -8 -26 -40
-10 -40 -9 -53 12 -117 27 -85 68 -125 138 -139 166 -31 317 166 249 324 -11
26 -41 67 -67 90 -57 52 -109 68 -180 53z"/>
<path d="M2354 880 c-40 -9 -84 -40 -156 -109 l-57 -54 -113 -3 c-62 -1 -159
-6 -215 -9 l-103 -7 -17 32 c-10 18 -40 59 -66 91 l-48 59 -79 0 c-73 0 -81
-2 -122 -33 -24 -18 -62 -62 -86 -97 -42 -63 -43 -67 -39 -127 4 -54 10 -68
50 -120 25 -33 63 -73 84 -89 33 -25 46 -29 104 -28 91 0 120 19 210 140 30
41 46 53 76 59 60 12 336 22 355 13 9 -4 20 -18 24 -30 3 -13 26 -53 50 -89
34 -52 54 -71 96 -92 60 -30 120 -35 171 -13 73 31 170 155 183 233 5 36 2 49
-24 91 -16 26 -32 58 -36 69 -9 28 -90 106 -119 115 -29 8 -85 8 -123 -2z
m118 -147 c53 -47 64 -133 25 -179 -48 -55 -157 -62 -199 -12 -20 22 -23 73
-9 111 5 14 28 44 50 67 37 39 44 42 77 37 20 -3 45 -14 56 -24z m-907 -5 c35
-31 44 -101 20 -152 -21 -44 -78 -86 -117 -86 -21 0 -28 -5 -28 -20 0 -24 -3
-24 -40 -5 -29 15 -30 18 -30 91 0 84 7 103 58 157 44 45 95 51 137 15z m-65
-273 c7 -9 11 -18 8 -21 -8 -8 -58 18 -52 27 8 14 30 10 44 -6z"/>
<path d="M7206 843 c-7 -7 13 -33 25 -33 5 0 9 6 9 14 0 15 -24 28 -34 19z"/>
<path d="M7396 823 c-13 -13 -5 -68 13 -87 12 -14 20 -42 24 -83 5 -61 5 -62
-24 -72 -16 -5 -29 -14 -29 -19 0 -5 -16 -18 -36 -27 -45 -21 -95 -10 -140 31
-24 23 -29 36 -32 90 -3 35 -7 64 -11 64 -20 -1 -29 -23 -34 -93 -8 -90 8
-134 63 -181 27 -22 41 -26 88 -25 31 1 71 5 87 9 l30 8 -27 1 c-42 2 -42 19
-1 38 21 9 41 19 46 21 4 2 7 -3 7 -12 0 -9 -5 -16 -11 -16 -5 0 -8 -4 -4 -10
18 -29 65 37 96 134 30 94 26 125 -23 175 -47 47 -72 64 -82 54z"/>
<path d="M7703 692 c-46 -3 -52 -11 -27 -36 24 -25 194 -23 224 2 49 40 -4 49
-197 34z"/>
<path d="M3713 274 c-10 -14 -33 -44 -52 -65 -28 -32 -40 -39 -71 -39 -39 0
-58 14 -119 89 -30 38 -51 35 -51 -6 0 -58 70 -155 126 -173 21 -7 54 -9 82
-5 38 6 56 16 94 55 43 42 48 52 48 91 -1 39 -17 79 -33 79 -3 0 -14 -12 -24
-26z"/>
</g>
</svg>
